<?xml version="1.0" encoding="utf-8"?>
<!-- Generator: Adobe Illustrator 18.0.0, SVG Export Plug-In . SVG Version: 6.00 Build 0)  -->
<!DOCTYPE svg PUBLIC "-//W3C//DTD SVG 1.1//EN" "http://www.w3.org/Graphics/SVG/1.1/DTD/svg11.dtd">
<svg version="1.1" id="Layer_1" xmlns="http://www.w3.org/2000/svg" xmlns:xlink="http://www.w3.org/1999/xlink" x="0px" y="0px"
	 viewBox="0 0 64 64" enable-background="new 0 0 64 64" xml:space="preserve">
<g id="XMLID_20_">
	<g>
		<g>
			<path fill="#FFCC66" d="M61,25c1.4,0,2.4,1.9,1.9,3.1L52.4,53.8c-0.3,0.8-1,1.2-1.9,1.2H1l11.1-28.3c0.3-0.8,1-1.7,1.9-1.7h42H61
				z"/>
		</g>
		<g>
			<path fill="#F2BD5F" d="M56,24.8V25H14c-0.9,0-1.6,0.9-1.9,1.7L1,55V11c0-1.1,0.9-2,2-2h23.1c0.5,0,1,0.2,1.4,0.6l3.4,5
				c0.4,0.4,0.9,0.6,1.4,0.6H54c1.1,0,2,0.9,2,2V24.8z"/>
		</g>
	</g>
	<path fill="#2D2D2D" d="M63.3,25.3C62.7,24.5,61.9,24,61,24h-4v-6.8c0-1.7-1.3-3-3-3H32.3c-0.2,0-0.5-0.1-0.6-0.2L28.3,9l-0.1-0.1
		C27.6,8.3,26.9,8,26.1,8H3c-1.7,0-3,1.3-3,3v45h50.5c1.2,0,2.3-0.7,2.8-1.9l10.5-25.7C64.2,27.5,64,26.3,63.3,25.3z M2,11
		c0-0.6,0.4-1,1-1h23.1c0.2,0,0.5,0.1,0.6,0.2l3.3,4.9l0.1,0.1c0.6,0.6,1.3,0.9,2.1,0.9H54c0.6,0,1,0.4,1,1V24H14
		c-1.4,0-2.4,1.2-2.8,2.3L2,49.7V11z M62,27.8L51.5,53.4c-0.2,0.4-0.5,0.6-0.9,0.6H2.5l10.6-27c0.2-0.6,0.7-1,0.9-1h47
		c0.2,0,0.5,0.2,0.7,0.5C62,26.9,62.1,27.4,62,27.8z"/>
</g>
</svg>
